<svg width="3491" height="1311" xmlns="http://www.w3.org/2000/svg" xmlns:xlink="http://www.w3.org/1999/xlink" xml:space="preserve" overflow="hidden"><defs><clipPath id="clip0"><rect x="460" y="455" width="3491" height="1311"/></clipPath></defs><g clip-path="url(#clip0)" transform="translate(-460 -455)"><path d="M3211.51 501.609C3157.33 552.255 3159.26 550.254 3164.79 550.254 3168 550.254 3168.66 550.589 3168.91 552.347 3169.73 557.962 3193.92 560.366 3252.6 560.663 3268.32 560.743 3269.2 560.253 3291.97 538.842 3319.21 513.235 3312.15 512.167 3349.88 547.615 3370.13 566.651 3364.79 565.269 3426.78 567.494 3481.34 569.452 3481.63 571.946 3419.92 509.368 3380.88 469.779 3375 464.187 3369.97 461.815L3364.26 459.127 3320.5 457.578C3296.42 456.725 3273.28 455.797 3269.05 455.514L3261.37 455 3211.51 501.609M1524.18 590.824C1437.28 599.75 1378.58 645.69 1364.17 716.053 1362.16 725.865 1361.01 965.912 1362.89 982.381 1372.53 1066.71 1440.4 1118.49 1541.3 1118.49 1647.35 1118.49 1719.47 1065.25 1730.19 979.05 1731.66 967.17 1730.93 963.344 1726.28 958.493L1722.49 954.553 1667.1 955.38 1611.71 956.206 1611.08 964.528C1606.35 1026.66 1505.44 1043.08 1484.52 985.129L1482.32 979.05 1482.04 860.072C1481.84 775.94 1482.07 739.285 1482.82 734.917 1493.47 672.761 1611.11 673.842 1611.23 736.097 1611.24 740.323 1611.56 741.57 1612.67 741.57 1613.45 741.57 1614.09 742.138 1614.09 742.832 1614.09 749.712 1620.01 750.367 1673.08 749.365 1735.92 748.179 1734.9 748.812 1728.85 715.17 1716.93 649.014 1667.21 606.455 1585.55 592.54 1576.83 591.053 1533.69 589.848 1524.18 590.824M1877.64 592.129C1844.93 592.508 1815.07 592.879 1811.28 592.952L1804.38 593.086 1804.38 845.754 1804.38 1098.42 1807.99 1102.32C1813.29 1108.07 1900.07 1110.64 1914.55 1105.48 1922.43 1102.67 1921.83 1110.14 1922.36 1010.03 1922.87 913.332 1922.63 917.378 1928.04 916.272 1929.36 916.002 1938.03 915.679 1947.3 915.554 1969.26 915.26 1968.17 914.402 1980.3 941.453 1982.06 945.379 1987.14 956.515 1991.59 966.2 1996.03 975.885 2002.76 990.662 2006.57 999.038 2034.93 1061.53 2051.28 1096.57 2053.3 1099.22 2058.4 1105.92 2055.71 1105.64 2115.98 1105.64 2179.87 1105.64 2178.3 1105.89 2178.3 1095.9 2178.3 1092.16 2174.78 1084.78 2121.93 977.622 2080.78 894.171 2082.65 898.779 2088.01 893.767 2089.63 892.249 2091.33 891.006 2091.79 891.006 2110.21 891.006 2155.38 837.729 2166.84 802.487 2198.55 704.885 2143.82 617.951 2037.48 597.042 2008.7 591.382 1990.42 590.82 1877.64 592.129M2351.98 592.234C2351.71 592.964 2321.92 706.21 2285.78 843.891 2249.62 981.572 2219.84 1094.97 2219.57 1095.89 2219.23 1097.04 2219.62 1097.55 2220.81 1097.56 2221.76 1097.56 2223.27 1098.85 2224.16 1100.42 2227.1 1105.59 2227.21 1105.6 2279.15 1105.95 2347.33 1106.4 2339.89 1110.57 2349.97 1066.14 2366.68 992.477 2366.02 994.728 2371.22 992.753 2376.18 990.867 2483.79 992.066 2486.81 994.041 2490.99 996.782 2489.61 991.662 2507.09 1069.47 2514.02 1100.29 2515.13 1103.13 2521.33 1105.72 2526.94 1108.07 2623.99 1108.72 2628.32 1106.44 2636.25 1102.26 2636.03 1100.87 2616.48 1029.02 2614.08 1020.21 2608.63 999.593 2599.85 966.2 2596.76 954.421 2588.37 922.726 2581.23 895.765 2574.07 868.805 2566.59 840.536 2564.58 832.945 2562.57 825.354 2558.72 810.791 2556.02 800.583 2551.5 783.523 2547.85 769.704 2539.41 737.763 2537.69 731.219 2534.47 719.012 2532.27 710.636 2530.07 702.26 2525.98 686.84 2523.19 676.37 2520.4 665.9 2515.48 647.268 2512.27 634.966 2503.09 599.904 2503.12 599.982 2494.67 593.193 2492.19 591.205 2352.68 590.267 2351.98 592.234M2674.95 846.596C2674.95 1125.92 2674.39 1099.8 2680.44 1105.7 2684.38 1109.55 2771.58 1112.15 2778.4 1108.63 2785.32 1105.04 2784.84 1114.88 2784.81 979.05 2784.78 851.741 2784.45 838.459 2780.07 789.161 2776.96 754.156 2776.49 747.41 2777.11 745.807 2779.1 740.629 2782.86 752.288 2803.32 827.169 2824.3 903.888 2817.98 895.779 2857.62 896.937 2920.85 898.784 2916.54 900.533 2925.03 869.59 2961.64 736.277 2963.05 731.555 2965.51 734.019 2965.81 734.315 2965 744.808 2963.73 757.338 2961.22 781.864 2959.08 809.341 2957.43 838.18 2955.67 868.755 2955.11 1106.12 2956.79 1106.12 2957.54 1106.12 2958.68 1107.12 2959.34 1108.34 2962.52 1114.27 2969.5 1114.97 3034.11 1115.8 3060.73 1116.15 3061.93 1115.89 3064.69 1109.29 3066.36 1105.29 3066.65 614.99 3064.99 610.518 3064.44 609.045 3062.49 606.45 3060.66 604.753L3057.34 601.668 3000.53 600.233C2929.73 598.445 2920.42 598.254 2920.42 598.589 2920.42 598.971 2871.93 788.324 2871.29 790.42 2869.12 797.571 2868.22 794.505 2843.82 697.31 2819.46 600.318 2820.75 604.722 2815.18 599.95L2810.81 596.215 2779.27 595.608C2761.93 595.274 2731.36 594.721 2711.34 594.379L2674.95 593.759 2674.95 846.596M3145.91 857.138 3145.91 1109.77 3149.36 1113.62C3154.24 1119.06 3155.25 1119.23 3189.67 1120.37 3290.24 1123.69 3347.58 1125.81 3424.68 1129.06 3479.84 1131.39 3480.77 1131.36 3484.92 1127.19L3487.95 1124.17 3488.22 1084.45C3488.53 1039.65 3488.71 1041.52 3483.56 1036.42L3479.75 1032.64 3462.44 1031.79C3441.33 1030.75 3338.15 1026.61 3297.66 1025.18L3268.17 1024.14 3266.03 1021.77 3263.89 1019.4 3263.89 965.628 3263.89 911.86 3266.37 909.378 3268.84 906.897 3290.39 907.542C3314.81 908.274 3397.51 911.475 3428.85 912.901 3464.37 914.517 3462.74 916.683 3462.73 867.862 3462.73 826.816 3462.82 827.406 3454.54 820.587 3452.7 819.069 3433.27 818.091 3322.4 813.936 3293.09 812.839 3268.41 811.726 3267.56 811.465 3264.04 810.396 3263.83 807.121 3264.09 758.357L3264.36 710.942 3266.74 709.01C3269.01 707.163 3269.95 707.105 3287.67 707.702 3316.82 708.684 3375.31 710.971 3412.84 712.598 3431.72 713.414 3454.93 714.164 3464.44 714.263L3481.71 714.443 3484.83 711.332 3487.95 708.221 3488.21 668.057C3488.41 640.01 3488.17 627.116 3487.42 625.319 3485.33 620.282 3480.42 616.902 3474.4 616.366 3458.38 614.939 3176.25 604.508 3153.65 604.508L3145.91 604.508 3145.91 857.138M1080.38 609.87C1048.22 611.12 1021.62 612.459 1021.28 612.846 1020.95 613.233 1013.07 643.104 1003.78 679.226 994.498 715.347 965.127 829.431 938.52 932.744 885.866 1137.17 888.958 1124.68 891.001 1124.68 891.786 1124.68 893.154 1125.83 894.042 1127.23 897.66 1132.97 895.684 1132.86 952.844 1130.51 1016.39 1127.91 1008.79 1133.83 1021.34 1077.09 1035.8 1011.66 1035.16 1013.58 1042.62 1012.43 1046.02 1011.9 1121.61 1009.11 1141.53 1008.78L1154.68 1008.56 1157.23 1011.41C1159.93 1014.44 1159.36 1012.15 1175.58 1084.23 1184.82 1125.3 1178.19 1121.72 1241.37 1119.82 1291.14 1118.32 1296.16 1117.81 1299.15 1114.02 1303.04 1109.07 1303.28 1110.27 1283.53 1036.16 1279.05 1019.41 1273.47 998.419 1271.11 989.52 1268.74 980.62 1262.99 958.99 1258.33 941.453 1253.67 923.915 1243.16 884.296 1234.96 853.409 1226.77 822.522 1217.36 787.186 1214.06 774.884 1210.75 762.581 1200.9 725.532 1192.17 692.551 1169.96 608.754 1171.88 614.634 1165.33 610.21 1160.11 606.687 1162.08 606.696 1080.38 609.87M810.129 621.735C802.541 622.156 775.996 623.631 751.14 625.013 726.283 626.394 705.816 627.651 705.658 627.805 705.499 627.96 694.243 672.322 680.644 726.386 667.045 780.452 655.667 825.093 655.36 825.59 653.369 828.812 651.115 820.724 618.293 692.551 605.113 641.089 605.342 641.759 599.715 638.205 597.703 636.933 596.055 635.567 596.055 635.169 596.055 634.771 587.813 634.989 577.74 635.654 550.403 637.459 470.726 643.437 464.995 644.114L460 644.703 460 897.778C460 1099.6 460.241 1150.85 461.189 1150.86 461.844 1150.86 463.092 1152.12 463.964 1153.65 467.274 1159.47 468.883 1159.47 545.242 1153.25 561.663 1151.92 565.285 1150.83 568.218 1146.35 569.785 1143.96 569.909 1137.03 570.18 1036.68 570.53 906.854 569.623 875.371 563.732 812.991 558.749 760.208 560.765 765.345 598.076 900.524 607.108 933.244 607.176 933.318 627.453 932.53 673.362 930.745 695.576 928.555 699.359 925.435 703.966 921.637 703.393 923.461 722.562 851.506 743.172 774.15 746.428 763.061 748.812 762.147 750.516 761.492 750.516 761.446 748.784 777.542 741.841 842.037 741.41 854.274 740.954 999.579L740.539 1131.47 743.223 1134.34C749.035 1140.56 747.695 1140.49 802.993 1137.52 844.028 1135.32 845.273 1135.08 848.422 1128.9 850.472 1124.87 851.073 632.971 849.034 628.954 844.695 620.41 842.227 619.952 810.129 621.735M3707.25 624.584C3622.28 633.249 3572.67 687.307 3576.31 767.269 3578.99 826.267 3611.99 875.744 3668.56 905.627 3687.79 915.779 3697.64 919.267 3746.85 933.35 3817.45 953.546 3832.84 965.533 3832.84 1000.31 3832.84 1072.28 3702.58 1074.69 3685.24 1003.05 3683.26 994.873 3681.96 992.69 3676.41 988.252 3674.92 987.064 3659.37 986.037 3579.37 981.844L3567.09 981.2 3567.66 992.548C3572.7 1092.81 3661.59 1156.84 3790.98 1153.42 3903.89 1150.43 3967.04 1079.7 3947.47 978.11 3933.11 903.455 3883.96 856.767 3793.07 831.453 3739.38 816.495 3733.11 814.587 3724.86 810.662 3696.53 797.195 3685.76 772.226 3697.52 747.281 3718.87 702.003 3821.43 721.257 3821.43 770.543 3821.43 779.283 3828.96 782.797 3850.92 784.299 3859.03 784.854 3874.66 785.988 3885.65 786.819 3931.21 790.262 3930.52 790.283 3934.96 785.317L3937.76 782.183 3937.25 772.109C3932.51 678.733 3828.77 612.193 3707.25 624.584M1939.74 690.999C1928.35 691.542 1926.95 691.804 1924.99 693.767L1922.83 695.934 1922.54 751.828C1922.24 809.294 1922.49 813.882 1925.96 815.669 1929.45 817.467 1996.25 815.253 2004.96 813.051 2073.3 795.779 2073.11 707.05 2004.71 692.441 1997.08 690.813 1960.59 690.003 1939.74 690.999M2427.35 724.172C2425.52 726.235 2424.56 729.762 2421.35 746.329 2419.16 757.638 2396.7 859.453 2391.47 881.763 2387.09 900.485 2384.52 899.205 2427.8 899.865 2474.1 900.57 2470.05 907.557 2457.49 848.527 2452.48 825.037 2446.05 794.468 2443.19 780.595 2431.28 722.802 2430.64 720.495 2427.35 724.172M1094.79 744.664C1094.14 746.365 1092.1 755.466 1090.25 764.89 1088.4 774.312 1080.49 810.818 1072.67 846.011 1058.63 909.201 1057.31 916.542 1059.64 918.339 1061.86 920.048 1132.84 916.818 1134.26 914.943 1136.13 912.49 1136.19 912.806 1123.57 853.951 1117 823.29 1109.48 787.71 1106.88 774.884 1100.07 741.311 1098.02 736.21 1094.79 744.664M2014.65 1330.21 2014.65 1425.93 2051.52 1425.92C2101.2 1425.91 2110.14 1423.75 2125.98 1407.87 2141.84 1391.97 2144 1382.72 2144.02 1330.61 2144.05 1278.31 2141.33 1266.78 2125.46 1251.88 2109.71 1237.09 2102.2 1235.3 2053.89 1234.85L2014.65 1234.48 2014.65 1330.21M2208.39 1236.28C2207.53 1239.2 2162.12 1424.86 2162.12 1425.41 2162.12 1425.69 2171.25 1425.93 2182.4 1425.93L2202.67 1425.93 2206.26 1409.04C2208.23 1399.75 2210.26 1390.1 2210.8 1387.6L2211.76 1383.06 2234.27 1383.32 2256.78 1383.57 2261.18 1404.3C2266.46 1429.19 2262.71 1426.02 2286.49 1425.71L2306.49 1425.45 2283.49 1332.65C2270.83 1281.61 2260.18 1238.67 2259.81 1237.23L2259.13 1234.61 2234 1234.61C2210.88 1234.61 2208.83 1234.75 2208.39 1236.28M2054.61 1330.27 2054.61 1389.76 2068.64 1389.76C2088.86 1389.75 2095.12 1387.14 2100.52 1376.5L2103.13 1371.33 2103.13 1330.29 2103.13 1289.24 2100.67 1284.29C2095.32 1273.55 2088.77 1270.78 2068.71 1270.78L2054.61 1270.78 2054.61 1330.27M2232.19 1283.42C2231.28 1288.77 2227.85 1306 2224.58 1321.71L2218.64 1350.26 2233.8 1350.52C2242.15 1350.67 2249.08 1350.67 2249.21 1350.52 2249.56 1350.14 2234.81 1274.65 2234.29 1274.13 2234.05 1273.89 2233.11 1278.07 2232.19 1283.42" fill="#040404" fill-rule="evenodd"/><path d="M1788.8 1529.51C1751 1533.01 1727.58 1555.65 1725.42 1590.81 1723.15 1627.97 1745.42 1653.47 1789.5 1664.15 1814.61 1670.22 1818.22 1671.32 1822.44 1674.12 1829.98 1679.1 1833.9 1687.3 1833.83 1697.93 1833.64 1730.52 1774.59 1732.87 1768.57 1700.52L1767.53 1694.92 1744.26 1694.92 1721 1694.92 1721.66 1701.82C1730.12 1790.52 1880.32 1785.8 1880.51 1696.82 1880.6 1653.74 1860.01 1631.53 1809.12 1619.78 1775.11 1611.93 1767.49 1604.78 1773.07 1585.97 1780.33 1561.56 1828.59 1566.37 1828.74 1591.53L1828.76 1595.09 1852.07 1595.09 1875.38 1595.09 1875.36 1590.1C1875.24 1551.19 1837.78 1524.98 1788.8 1529.51M1914.62 1621.48C1914.91 1709.2 1914.95 1710.71 1916.93 1716.9 1937.99 1782.76 2042.76 1781.99 2062.95 1715.84L2065.13 1708.71 2065.44 1620.52 2065.74 1532.34 2041.92 1532.34 2018.09 1532.34 2018.08 1613.39C2018.07 1709.55 2018.17 1708.49 2008.68 1717.06 1997.54 1727.12 1975.09 1724.81 1967.04 1712.77 1961.96 1705.18 1961.96 1705.11 1961.96 1615.49L1961.96 1532.34 1938.15 1532.34 1914.32 1532.34 1914.62 1621.48M2109.43 1646.91 2109.43 1761.48 2180.31 1761.48 2251.19 1761.48 2251.19 1741.04 2251.19 1720.59 2203.62 1720.59 2156.05 1720.59 2156.05 1692.07 2156.05 1663.55 2197.91 1663.55 2239.78 1663.55 2239.78 1644.06 2239.78 1624.57 2197.91 1624.57 2156.05 1624.57 2156.05 1598.89 2156.05 1573.22 2203.62 1573.22 2251.19 1573.22 2251.19 1552.78 2251.19 1532.34 2180.31 1532.34 2109.43 1532.34 2109.43 1646.91M2299.72 1646.91 2299.72 1761.48 2370.12 1761.48 2440.53 1761.48 2440.53 1740.08 2440.53 1718.69 2394.39 1718.69 2348.24 1718.69 2348.24 1625.52 2348.24 1532.34 2323.98 1532.34 2299.72 1532.34 2299.72 1646.91M2423.85 1535.43C2424.56 1537.13 2439.32 1570.17 2456.63 1608.86L2488.1 1679.2 2488.1 1720.34 2488.1 1761.48 2512.36 1761.48 2536.62 1761.48 2536.62 1720.39 2536.62 1679.31 2569.12 1606.54C2586.99 1566.51 2601.79 1533.44 2602 1533.05 2602.22 1532.66 2591.12 1532.35 2577.35 1532.36L2552.32 1532.39 2538.29 1567.3C2522.48 1606.64 2519.79 1614.12 2516.05 1629.28L2513.42 1639.96 2510.84 1630.12C2506.89 1615.03 2505.27 1610.69 2488.38 1570.13L2472.64 1532.34 2447.6 1532.34 2422.55 1532.34 2423.85 1535.43" fill="#EB7334" fill-rule="evenodd"/></g></svg>